<svg width="14" height="14" viewBox="0 0 14 14" fill="none" xmlns="http://www.w3.org/2000/svg">
<path d="M9.625 1.75C11.4216 1.75 12.8328 3.1615 12.833 4.95801C12.833 7.15732 10.8603 8.95079 7.86914 11.6689L7.8457 11.6904L7 12.4541L6.1543 11.6846L6.14648 11.6777C3.14647 8.95734 1.16699 7.16119 1.16699 4.95801C1.16716 3.1615 2.57844 1.75 4.375 1.75C5.38989 1.75 6.36416 2.22222 7 2.96875C7.63584 2.22222 8.61011 1.75 9.625 1.75ZM9.625 2.91699C8.96334 2.91699 8.31032 3.23056 7.88867 3.72559L7 4.76855L6.11133 3.72559C5.68968 3.23056 5.03666 2.91699 4.375 2.91699C3.22277 2.91699 2.33318 3.80583 2.33301 4.95801C2.33301 5.6772 2.64609 6.42124 3.43652 7.3877C4.31332 8.45966 5.34412 9.38576 6.37207 10.3096C6.58278 10.4989 6.79376 10.6885 7.00293 10.8789C7.16739 10.7303 7.33321 10.5823 7.49902 10.4336C8.56987 9.47332 9.65383 8.50037 10.5625 7.38867C11.3534 6.42109 11.667 5.67729 11.667 4.95801C11.6668 3.80583 10.7772 2.91699 9.625 2.91699Z" fill="#9CA3AF"/>
</svg>
