<svg width="14" height="14" viewBox="0 0 14 14" fill="none" xmlns="http://www.w3.org/2000/svg">
<path d="M8.01082 2.04754L9.03749 4.10087C9.17749 4.38671 9.55082 4.66087 9.86582 4.71337L11.7267 5.02254C12.9167 5.22087 13.1967 6.08421 12.3392 6.93587L10.8925 8.38254C10.6475 8.62754 10.5133 9.10004 10.5892 9.43837L11.0033 11.2292C11.33 12.6467 10.5775 13.195 9.32332 12.4542L7.57915 11.4217C7.26415 11.235 6.74499 11.235 6.42416 11.4217L4.67999 12.4542C3.43166 13.195 2.67332 12.6409 2.99999 11.2292L3.41416 9.43837C3.48999 9.10004 3.35582 8.62754 3.11082 8.38254L1.66416 6.93587C0.812489 6.08421 1.08666 5.22087 2.27666 5.02254L4.13749 4.71337C4.44666 4.66087 4.81999 4.38671 4.95999 4.10087L5.98666 2.04754C6.54666 0.933372 7.45666 0.933372 8.01082 2.04754Z" fill="#FBC01D"/>
</svg>
